<mxfile host="65bd71144e">
    <diagram id="teiec8SMrZk8JHDAh11B" name="Page-1">
        <mxGraphModel dx="2595" dy="1422" grid="1" gridSize="10" guides="1" tooltips="1" connect="1" arrows="1" fold="1" page="1" pageScale="1" pageWidth="827" pageHeight="1169" math="0" shadow="0">
            <root>
                <mxCell id="0"/>
                <mxCell id="1" parent="0"/>
                <mxCell id="2" value="Start" style="strokeWidth=2;html=1;shape=mxgraph.flowchart.start_1;whiteSpace=wrap;" vertex="1" parent="1">
                    <mxGeometry x="380" y="40" width="100" height="60" as="geometry"/>
                </mxCell>
                <mxCell id="3" value="Enter the first &lt;br&gt;number" style="shape=parallelogram;html=1;strokeWidth=2;perimeter=parallelogramPerimeter;whiteSpace=wrap;rounded=1;arcSize=12;size=0.23;" vertex="1" parent="1">
                    <mxGeometry x="365" y="160" width="130" height="60" as="geometry"/>
                </mxCell>
                <mxCell id="4" value="try" style="strokeWidth=2;html=1;shape=mxgraph.flowchart.decision;whiteSpace=wrap;" vertex="1" parent="1">
                    <mxGeometry x="380" y="370" width="100" height="100" as="geometry"/>
                </mxCell>
                <mxCell id="5" value="convert first string to int" style="rounded=1;whiteSpace=wrap;html=1;absoluteArcSize=1;arcSize=14;strokeWidth=2;" vertex="1" parent="1">
                    <mxGeometry x="335" y="520" width="190" height="70" as="geometry"/>
                </mxCell>
                <mxCell id="6" value="if &lt;br&gt;&amp;nbsp;first number&amp;gt; second number&lt;br&gt;second number&amp;lt;first number&lt;br&gt;" style="strokeWidth=2;html=1;shape=mxgraph.flowchart.decision;whiteSpace=wrap;" vertex="1" parent="1">
                    <mxGeometry x="280" y="690" width="308.75" height="290" as="geometry"/>
                </mxCell>
                <mxCell id="7" value="Enter the second&lt;br&gt;number" style="shape=parallelogram;html=1;strokeWidth=2;perimeter=parallelogramPerimeter;whiteSpace=wrap;rounded=1;arcSize=12;size=0.23;" vertex="1" parent="1">
                    <mxGeometry x="365" y="250" width="130" height="60" as="geometry"/>
                </mxCell>
                <mxCell id="8" value="print&quot; First number is &lt;br&gt;bigger than the second number. &lt;br&gt;Second number is smaller than the first number.&quot;" style="shape=parallelogram;html=1;strokeWidth=2;perimeter=parallelogramPerimeter;whiteSpace=wrap;rounded=1;arcSize=12;size=0.23;" vertex="1" parent="1">
                    <mxGeometry x="222.99999999999994" y="1120" width="380.16" height="110" as="geometry"/>
                </mxCell>
                <mxCell id="9" value="print&quot; Second number is &lt;br&gt;bigger than the first number,.&lt;br&gt;&amp;nbsp;First number is smaller than the second number.&quot;" style="shape=parallelogram;html=1;strokeWidth=2;perimeter=parallelogramPerimeter;whiteSpace=wrap;rounded=1;arcSize=12;size=0.23;" vertex="1" parent="1">
                    <mxGeometry x="580" y="1120" width="400" height="100" as="geometry"/>
                </mxCell>
                <mxCell id="10" value="A is not valid input" style="shape=parallelogram;html=1;strokeWidth=2;perimeter=parallelogramPerimeter;whiteSpace=wrap;rounded=1;arcSize=12;size=0.23;" vertex="1" parent="1">
                    <mxGeometry x="-170" y="1120" width="180" height="100" as="geometry"/>
                </mxCell>
                <mxCell id="11" value="convert the second string to int" style="rounded=1;whiteSpace=wrap;html=1;absoluteArcSize=1;arcSize=14;strokeWidth=2;" vertex="1" parent="1">
                    <mxGeometry x="335" y="600" width="190" height="70" as="geometry"/>
                </mxCell>
                <mxCell id="12" value="else if &lt;br&gt;&amp;nbsp;&lt;br&gt;second number&amp;gt; first number&lt;br&gt;first number&amp;lt; second number" style="strokeWidth=2;html=1;shape=mxgraph.flowchart.decision;whiteSpace=wrap;" vertex="1" parent="1">
                    <mxGeometry x="620.0799999999999" y="690" width="308.75" height="290" as="geometry"/>
                </mxCell>
                <mxCell id="13" value="else if &lt;br&gt;&amp;nbsp;first number == second number" style="strokeWidth=2;html=1;shape=mxgraph.flowchart.decision;whiteSpace=wrap;" vertex="1" parent="1">
                    <mxGeometry x="980" y="690" width="308.75" height="290" as="geometry"/>
                </mxCell>
                <mxCell id="14" value="print&quot; first number is equal to the second number.&quot;" style="shape=parallelogram;html=1;strokeWidth=2;perimeter=parallelogramPerimeter;whiteSpace=wrap;rounded=1;arcSize=12;size=0.23;" vertex="1" parent="1">
                    <mxGeometry x="940" y="1120" width="400" height="100" as="geometry"/>
                </mxCell>
                <mxCell id="15" value="" style="shape=parallelogram;html=1;strokeWidth=2;perimeter=parallelogramPerimeter;whiteSpace=wrap;rounded=1;arcSize=12;size=0.23;" vertex="1" parent="1">
                    <mxGeometry x="1450" y="1050" width="100" height="60" as="geometry"/>
                </mxCell>
                <mxCell id="16" value="Stop" style="strokeWidth=2;html=1;shape=mxgraph.flowchart.start_1;whiteSpace=wrap;" vertex="1" parent="1">
                    <mxGeometry x="520.08" y="1350" width="100" height="60" as="geometry"/>
                </mxCell>
            </root>
        </mxGraphModel>
    </diagram>
</mxfile>